<?xml version="1.0" encoding="UTF-8" standalone="no"?>
<!-- Created with Inkscape (http://www.inkscape.org/) -->

<svg
   version="1.1"
   id="svg2"
   width="773.33331"
   height="773.33331"
   viewBox="0 0 773.33331 773.33331"
   sodipodi:docname="3ds-max-seeklogo.com.eps"
   xmlns:inkscape="http://www.inkscape.org/namespaces/inkscape"
   xmlns:sodipodi="http://sodipodi.sourceforge.net/DTD/sodipodi-0.dtd"
   xmlns="http://www.w3.org/2000/svg"
   xmlns:svg="http://www.w3.org/2000/svg">
  <defs
     id="defs6" />
  <sodipodi:namedview
     id="namedview4"
     pagecolor="#ffffff"
     bordercolor="#000000"
     borderopacity="0.25"
     inkscape:showpageshadow="2"
     inkscape:pageopacity="0.0"
     inkscape:pagecheckerboard="0"
     inkscape:deskcolor="#d1d1d1" />
  <g
     id="g8"
     inkscape:groupmode="layer"
     inkscape:label="ink_ext_XXXXXX"
     transform="matrix(1.3333333,0,0,-1.3333333,0,773.33333)">
    <g
       id="g10"
       transform="scale(0.1)">
      <path
         d="M 0,5800 H 5800 V 0 H 0 v 5800"
         style="fill:#3aa4a1;fill-opacity:1;fill-rule:nonzero;stroke:none"
         id="path12" />
      <path
         d="m 2699.45,3900.78 -5.5,1.97 v 509.34 l 5.7,5.12 1.97,3.15 1881.89,-1219.82 -1884.26,699.65 0.2,0.59"
         style="fill:#131918;fill-opacity:1;fill-rule:nonzero;stroke:none"
         id="path14" />
      <path
         d="m 2699.45,2499.49 -0.2,0.59 1884.26,699.65 -1882.08,-1219.82 -1.78,2.77 h -5.7 v 514.84 l 5.5,1.97"
         style="fill:#131918;fill-opacity:1;fill-rule:nonzero;stroke:none"
         id="path16" />
      <path
         d="m 3567.19,5227.87 1016.32,-2027.33 -1881.89,1219.82 -2.37,1.57 0.4,0.99 861.44,799.25 6.1,5.7"
         style="fill:#1c4c4e;fill-opacity:1;fill-rule:nonzero;stroke:none"
         id="path18" />
      <path
         d="m 4583.51,3199.73 -1016.32,-2027.34 -5.71,5.52 -861.83,799.43 -0.4,1 2.18,1.57 1882.08,1219.82"
         style="fill:#1c4c4e;fill-opacity:1;fill-rule:nonzero;stroke:none"
         id="path20" />
      <path
         d="m 2699.25,4421.93 2.37,-1.57 -1.97,-3.15 H 1321.39 l -12.41,4.72 344.22,801.02 v 0 l 1.78,-0.78 h 1906.11 l -861.44,-799.25 -0.4,-0.99"
         style="fill:#25686a;fill-opacity:1;fill-rule:nonzero;stroke:none"
         id="path22" />
      <path
         d="m 2699.65,4417.21 -5.7,-5.12 v 5.12 z"
         style="fill:#25686a;fill-opacity:1;fill-rule:nonzero;stroke:none"
         id="path24" />
      <path
         d="m 2699.65,1982.68 1.78,-2.77 -2.18,-1.57 0.4,-1 861.83,-799.43 h -1906.5 l -1.78,-0.78 -344.22,801.21 11.63,4.34 h 1367.23 l 6.11,-5.73 v 5.73 h 5.7"
         style="fill:#25686a;fill-opacity:1;fill-rule:nonzero;stroke:none"
         id="path26" />
      <path
         d="m 2699.25,3900.19 1884.26,-699.65 v -0.81 l -1884.26,-699.65 0.2,-0.59 -5.5,-1.97 v 1.78 699.26 2.76 699.27 2.16 l 5.5,-1.97 -0.2,-0.59"
         style="fill:#1c4c4e;fill-opacity:1;fill-rule:nonzero;stroke:none"
         id="path28" />
      <path
         d="m 2693.95,1982.68 v -5.73 l -6.11,5.73 z"
         style="fill:#25686a;fill-opacity:1;fill-rule:nonzero;stroke:none"
         id="path30" />
      <path
         d="m 2693.95,2497.52 v -514.84 h -6.11 l -392.05,365.66 398.16,149.18"
         style="fill:#141f1f;fill-opacity:1;fill-rule:nonzero;stroke:none"
         id="path32" />
      <path
         d="m 2693.95,2499.3 v -1.78 l -398.16,-149.18 -903.93,850.62 v 2.36 l 903.93,850.61 398.16,-149.18 v -2.16 -699.27 -2.76 -699.26"
         style="fill:#25686a;fill-opacity:1;fill-rule:nonzero;stroke:none"
         id="path34" />
      <path
         d="m 2693.95,4412.09 v -509.34 l -398.16,149.18 z"
         style="fill:#141f1f;fill-opacity:1;fill-rule:nonzero;stroke:none"
         id="path36" />
      <path
         d="m 2693.95,4417.21 v -5.12 l -398.16,-360.16 -974.4,365.28 h 1372.56"
         style="fill:#163031;fill-opacity:1;fill-rule:nonzero;stroke:none"
         id="path38" />
      <path
         d="M 2687.84,1982.68 H 1320.61 l 975.18,365.66 z"
         style="fill:#163031;fill-opacity:1;fill-rule:nonzero;stroke:none"
         id="path40" />
      <path
         d="m 2054.5,854.551 h 157.65 l 51.37,-197.793 16.73,-78.328 h 2.75 l 16.73,78.328 48.41,197.793 H 2505.8 V 248.184 h -128.72 v 142.683 c 0,18.11 0.79,40.93 2.35,68.488 1.59,27.754 3.36,56.29 5.13,85.813 1.78,29.52 4.14,58.062 6.49,85.406 2.56,27.364 4.73,49.992 6.49,68.117 h -2.75 l -50.4,-180.086 -31.68,-109.242 h -69.08 l -31.68,109.242 -47.63,180.086 h -3.73 c 1.75,-18.117 4.12,-40.742 6.48,-68.117 2.56,-27.344 4.73,-55.886 6.48,-85.406 1.78,-29.523 3.55,-58.254 5.13,-85.813 1.57,-27.746 2.36,-50.578 2.36,-68.488 V 248.184 H 2054.1 l 0.4,606.367 v 0"
         style="fill:#ffffff;fill-opacity:1;fill-rule:nonzero;stroke:none"
         id="path42" />
      <path
         d="m 3026.54,376.895 h -166.1 l -29.91,-128.711 h -164.14 l 182.84,606.367 h 194.06 l 182.84,-606.367 h -169.85 z m -28.92,124.191 -9.25,41.91 c -6.89,29.328 -13.97,61.02 -21.46,95.051 -7.48,34.258 -14.96,66.523 -22.43,97.031 h -3.74 c -6.89,-31.094 -13.79,-63.562 -21.05,-97.422 -7.09,-33.847 -14.17,-65.539 -21.06,-94.66 l -9.25,-41.91 h 108.24 v 0"
         style="fill:#ffffff;fill-opacity:1;fill-rule:nonzero;stroke:none"
         id="path44" />
      <path
         d="m 3511.5,559.734 -165.14,294.817 h 179.09 l 48.43,-98.797 c 6.88,-14.375 13.96,-29.738 21.45,-46.25 7.47,-16.535 15.55,-34.641 24.2,-54.524 h 3.75 c 6.88,19.883 13.57,38.184 20.47,54.524 6.88,16.512 13.39,31.875 19.68,46.25 l 42.91,98.797 h 171.61 L 3712.83,552.246 3888.18,248.191 h -179.1 l -55.9,108.235 c -8.65,16.133 -16.72,32.273 -23.8,48.429 -7.09,16.122 -14.77,33.641 -22.84,52.149 h -3.74 c -6.88,-18.703 -13.77,-36.027 -21.04,-52.149 -7.09,-16.156 -14.38,-32.296 -21.86,-48.429 l -52.15,-108.235 h -171.62 l 175.37,311.543"
         style="fill:#ffffff;fill-opacity:1;fill-rule:nonzero;stroke:none"
         id="path46" />
    </g>
  </g>
</svg>
